<svg width="256" height="256" viewBox="0 0 256 256" fill="none" xmlns="http://www.w3.org/2000/svg">
<mask id="path-1-outside-1_890_178" maskUnits="userSpaceOnUse" x="13" y="75" width="227" height="98" fill="black">
<rect fill="white" x="13" y="75" width="227" height="98"/>
<path d="M63.493 169.699C59.1961 169.699 55.0555 169.152 51.0711 168.059C47.1258 166.965 43.4148 165.441 39.9383 163.488C36.5008 161.496 33.3562 159.113 30.5047 156.34C27.6922 153.566 25.2703 150.5 23.2391 147.141C21.2078 143.742 19.6258 140.109 18.493 136.242C17.3992 132.336 16.8523 128.273 16.8523 124.055C16.8523 119.914 17.3992 115.91 18.493 112.043C19.6258 108.176 21.2078 104.562 23.2391 101.203C25.2703 97.8438 27.6922 94.7773 30.5047 92.0039C33.3562 89.2305 36.5008 86.8672 39.9383 84.9141C43.4148 82.9609 47.1258 81.4375 51.0711 80.3438C55.0555 79.25 59.1961 78.7031 63.493 78.7031C67.7508 78.7031 71.8523 79.25 75.7977 80.3438C79.743 81.3984 83.4344 82.9219 86.8719 84.9141C90.3094 86.8672 93.4344 89.2305 96.2469 92.0039C99.0984 94.7773 101.52 97.8438 103.512 101.203C105.544 104.562 107.106 108.176 108.2 112.043C109.333 115.91 109.899 119.914 109.899 124.055C109.899 128.273 109.333 132.336 108.2 136.242C107.106 140.109 105.544 143.742 103.512 147.141C101.52 150.5 99.0984 153.566 96.2469 156.34C93.4344 159.113 90.3094 161.496 86.8719 163.488C83.4344 165.441 79.743 166.965 75.7977 168.059C71.8523 169.152 67.7508 169.699 63.493 169.699ZM63.493 164.016C68.8055 164.016 73.493 162.98 77.5555 160.91C81.657 158.84 85.0945 156.008 87.868 152.414C90.6414 148.82 92.7312 144.602 94.1375 139.758C95.5828 134.875 96.3055 129.641 96.3055 124.055C96.3055 118.508 95.6023 113.312 94.1961 108.469C92.7898 103.625 90.7 99.4258 87.9266 95.8711C85.1922 92.3164 81.7742 89.5234 77.6727 87.4922C73.5711 85.4219 68.8445 84.3867 63.493 84.3867C58.0633 84.3867 53.2977 85.4219 49.1961 87.4922C45.1336 89.5234 41.7156 92.3164 38.9422 95.8711C36.2078 99.4258 34.1375 103.625 32.7312 108.469C31.3641 113.312 30.6805 118.508 30.6805 124.055C30.6805 129.641 31.3836 134.875 32.7898 139.758C34.1961 144.602 36.2664 148.82 39.0008 152.414C41.7742 156.008 45.2117 158.84 49.3133 160.91C53.4148 162.98 58.1414 164.016 63.493 164.016ZM178.96 124.582C178.96 119.27 178.355 114.641 177.144 110.695C175.933 106.75 174.292 103.371 172.222 100.559C170.152 97.7461 167.73 95.4414 164.956 93.6445C162.183 91.8086 159.253 90.3828 156.167 89.3672C153.081 88.3125 149.898 87.5898 146.616 87.1992C143.374 86.8086 140.21 86.6133 137.124 86.6133H129.8V162.258H137.124C140.21 162.258 143.374 162.062 146.616 161.672C149.898 161.281 153.081 160.578 156.167 159.562C159.253 158.508 162.183 157.082 164.956 155.285C167.73 153.488 170.152 151.203 172.222 148.43C174.292 145.617 175.933 142.258 177.144 138.352C178.355 134.445 178.96 129.855 178.96 124.582ZM192.554 124.348C192.554 130.441 191.46 136.145 189.273 141.457C187.124 146.73 183.921 151.34 179.663 155.285C175.405 159.23 170.112 162.336 163.784 164.602C157.495 166.867 150.21 168 141.929 168H116.968V80.8711H141.929C150.21 80.8711 157.495 82.0039 163.784 84.2695C170.112 86.5352 175.405 89.6406 179.663 93.5859C183.921 97.4922 187.124 102.102 189.273 107.414C191.46 112.688 192.554 118.332 192.554 124.348ZM211.55 116.789C209.675 116.789 208.034 116.848 206.628 116.965C205.261 117.082 204.011 117.238 202.878 117.434C201.745 117.629 200.691 117.863 199.714 118.137C198.738 118.371 197.761 118.625 196.784 118.898L195.378 115.09C198.659 113.879 202.077 113.02 205.632 112.512C209.226 111.965 212.624 111.691 215.827 111.691C219.929 111.691 223.288 111.906 225.905 112.336C228.562 112.766 230.632 113.488 232.116 114.504C233.601 115.48 234.616 116.809 235.163 118.488C235.749 120.129 236.042 122.199 236.042 124.699V168H216.823C211.589 168 207.116 167.453 203.405 166.359C199.734 165.266 196.726 163.801 194.382 161.965C192.038 160.09 190.32 157.961 189.226 155.578C188.132 153.156 187.585 150.617 187.585 147.961C187.585 144.68 188.093 141.789 189.109 139.289C190.163 136.789 191.667 134.699 193.62 133.02C195.573 131.301 197.956 130.012 200.769 129.152C203.581 128.254 206.784 127.805 210.378 127.805C212.331 127.805 214.538 128.137 216.999 128.801C219.499 129.465 221.882 130.461 224.148 131.789V124.465C224.148 123.566 224.05 122.668 223.855 121.77C223.659 120.832 223.152 120.012 222.331 119.309C221.511 118.566 220.241 117.961 218.523 117.492C216.843 117.023 214.519 116.789 211.55 116.789ZM224.148 163.195V136.066C222.273 134.934 220.32 134.094 218.288 133.547C216.257 133 214.011 132.727 211.55 132.727C209.597 132.727 207.859 133.078 206.335 133.781C204.851 134.484 203.601 135.48 202.585 136.77C201.57 138.059 200.788 139.602 200.241 141.398C199.734 143.195 199.48 145.188 199.48 147.375C199.48 148 199.499 148.82 199.538 149.836C199.616 150.852 199.812 151.945 200.124 153.117C200.476 154.289 200.984 155.48 201.648 156.691C202.351 157.863 203.327 158.938 204.577 159.914C205.827 160.891 207.409 161.691 209.323 162.316C211.238 162.902 213.581 163.195 216.355 163.195H224.148Z"/>
</mask>
<path d="M63.493 169.699C59.1961 169.699 55.0555 169.152 51.0711 168.059C47.1258 166.965 43.4148 165.441 39.9383 163.488C36.5008 161.496 33.3562 159.113 30.5047 156.34C27.6922 153.566 25.2703 150.5 23.2391 147.141C21.2078 143.742 19.6258 140.109 18.493 136.242C17.3992 132.336 16.8523 128.273 16.8523 124.055C16.8523 119.914 17.3992 115.91 18.493 112.043C19.6258 108.176 21.2078 104.562 23.2391 101.203C25.2703 97.8438 27.6922 94.7773 30.5047 92.0039C33.3562 89.2305 36.5008 86.8672 39.9383 84.9141C43.4148 82.9609 47.1258 81.4375 51.0711 80.3438C55.0555 79.25 59.1961 78.7031 63.493 78.7031C67.7508 78.7031 71.8523 79.25 75.7977 80.3438C79.743 81.3984 83.4344 82.9219 86.8719 84.9141C90.3094 86.8672 93.4344 89.2305 96.2469 92.0039C99.0984 94.7773 101.52 97.8438 103.512 101.203C105.544 104.562 107.106 108.176 108.2 112.043C109.333 115.91 109.899 119.914 109.899 124.055C109.899 128.273 109.333 132.336 108.2 136.242C107.106 140.109 105.544 143.742 103.512 147.141C101.52 150.5 99.0984 153.566 96.2469 156.34C93.4344 159.113 90.3094 161.496 86.8719 163.488C83.4344 165.441 79.743 166.965 75.7977 168.059C71.8523 169.152 67.7508 169.699 63.493 169.699ZM63.493 164.016C68.8055 164.016 73.493 162.98 77.5555 160.91C81.657 158.84 85.0945 156.008 87.868 152.414C90.6414 148.82 92.7312 144.602 94.1375 139.758C95.5828 134.875 96.3055 129.641 96.3055 124.055C96.3055 118.508 95.6023 113.312 94.1961 108.469C92.7898 103.625 90.7 99.4258 87.9266 95.8711C85.1922 92.3164 81.7742 89.5234 77.6727 87.4922C73.5711 85.4219 68.8445 84.3867 63.493 84.3867C58.0633 84.3867 53.2977 85.4219 49.1961 87.4922C45.1336 89.5234 41.7156 92.3164 38.9422 95.8711C36.2078 99.4258 34.1375 103.625 32.7312 108.469C31.3641 113.312 30.6805 118.508 30.6805 124.055C30.6805 129.641 31.3836 134.875 32.7898 139.758C34.1961 144.602 36.2664 148.82 39.0008 152.414C41.7742 156.008 45.2117 158.84 49.3133 160.91C53.4148 162.98 58.1414 164.016 63.493 164.016ZM178.96 124.582C178.96 119.27 178.355 114.641 177.144 110.695C175.933 106.75 174.292 103.371 172.222 100.559C170.152 97.7461 167.73 95.4414 164.956 93.6445C162.183 91.8086 159.253 90.3828 156.167 89.3672C153.081 88.3125 149.898 87.5898 146.616 87.1992C143.374 86.8086 140.21 86.6133 137.124 86.6133H129.8V162.258H137.124C140.21 162.258 143.374 162.062 146.616 161.672C149.898 161.281 153.081 160.578 156.167 159.562C159.253 158.508 162.183 157.082 164.956 155.285C167.73 153.488 170.152 151.203 172.222 148.43C174.292 145.617 175.933 142.258 177.144 138.352C178.355 134.445 178.96 129.855 178.96 124.582ZM192.554 124.348C192.554 130.441 191.46 136.145 189.273 141.457C187.124 146.73 183.921 151.34 179.663 155.285C175.405 159.23 170.112 162.336 163.784 164.602C157.495 166.867 150.21 168 141.929 168H116.968V80.8711H141.929C150.21 80.8711 157.495 82.0039 163.784 84.2695C170.112 86.5352 175.405 89.6406 179.663 93.5859C183.921 97.4922 187.124 102.102 189.273 107.414C191.46 112.688 192.554 118.332 192.554 124.348ZM211.55 116.789C209.675 116.789 208.034 116.848 206.628 116.965C205.261 117.082 204.011 117.238 202.878 117.434C201.745 117.629 200.691 117.863 199.714 118.137C198.738 118.371 197.761 118.625 196.784 118.898L195.378 115.09C198.659 113.879 202.077 113.02 205.632 112.512C209.226 111.965 212.624 111.691 215.827 111.691C219.929 111.691 223.288 111.906 225.905 112.336C228.562 112.766 230.632 113.488 232.116 114.504C233.601 115.48 234.616 116.809 235.163 118.488C235.749 120.129 236.042 122.199 236.042 124.699V168H216.823C211.589 168 207.116 167.453 203.405 166.359C199.734 165.266 196.726 163.801 194.382 161.965C192.038 160.09 190.32 157.961 189.226 155.578C188.132 153.156 187.585 150.617 187.585 147.961C187.585 144.68 188.093 141.789 189.109 139.289C190.163 136.789 191.667 134.699 193.62 133.02C195.573 131.301 197.956 130.012 200.769 129.152C203.581 128.254 206.784 127.805 210.378 127.805C212.331 127.805 214.538 128.137 216.999 128.801C219.499 129.465 221.882 130.461 224.148 131.789V124.465C224.148 123.566 224.05 122.668 223.855 121.77C223.659 120.832 223.152 120.012 222.331 119.309C221.511 118.566 220.241 117.961 218.523 117.492C216.843 117.023 214.519 116.789 211.55 116.789ZM224.148 163.195V136.066C222.273 134.934 220.32 134.094 218.288 133.547C216.257 133 214.011 132.727 211.55 132.727C209.597 132.727 207.859 133.078 206.335 133.781C204.851 134.484 203.601 135.48 202.585 136.77C201.57 138.059 200.788 139.602 200.241 141.398C199.734 143.195 199.48 145.188 199.48 147.375C199.48 148 199.499 148.82 199.538 149.836C199.616 150.852 199.812 151.945 200.124 153.117C200.476 154.289 200.984 155.48 201.648 156.691C202.351 157.863 203.327 158.938 204.577 159.914C205.827 160.891 207.409 161.691 209.323 162.316C211.238 162.902 213.581 163.195 216.355 163.195H224.148Z" fill="white"/>
<path d="M51.0711 168.059L50.2696 170.95L50.2769 170.952L51.0711 168.059ZM39.9383 163.488L38.434 166.084L38.4514 166.094L38.4689 166.104L39.9383 163.488ZM30.5047 156.34L28.3983 158.476L28.4056 158.483L28.413 158.49L30.5047 156.34ZM23.2391 147.141L20.664 148.68L20.6679 148.686L20.6719 148.693L23.2391 147.141ZM18.493 136.242L15.6041 137.051L15.6089 137.068L15.6139 137.086L18.493 136.242ZM18.493 112.043L15.6139 111.2L15.61 111.213L15.6062 111.227L18.493 112.043ZM23.2391 101.203L25.8063 102.755L23.2391 101.203ZM30.5047 92.0039L28.413 89.8533L28.4056 89.8605L28.3983 89.8678L30.5047 92.0039ZM39.9383 84.9141L38.4689 82.2986L38.4626 82.3021L38.4562 82.3057L39.9383 84.9141ZM51.0711 80.3438L50.2769 77.4508L50.2696 77.4528L51.0711 80.3438ZM75.7977 80.3438L74.9962 83.2347L75.0095 83.2384L75.0229 83.242L75.7977 80.3438ZM86.8719 84.9141L85.3676 87.5097L85.3787 87.5161L85.3898 87.5224L86.8719 84.9141ZM96.2469 92.0039L94.1404 94.14L94.1478 94.1473L94.1552 94.1545L96.2469 92.0039ZM103.512 101.203L100.932 102.733L100.939 102.744L100.945 102.755L103.512 101.203ZM108.2 112.043L105.313 112.859L105.317 112.873L105.321 112.886L108.2 112.043ZM108.2 136.242L105.319 135.407L105.316 135.416L105.313 135.426L108.2 136.242ZM103.512 147.141L100.937 145.601L100.932 145.61L103.512 147.141ZM96.2469 156.34L94.1552 154.189L94.1478 154.196L94.1404 154.204L96.2469 156.34ZM86.8719 163.488L88.3539 166.097L88.365 166.09L88.3761 166.084L86.8719 163.488ZM77.5555 160.91L76.2036 158.232L76.1933 158.237L77.5555 160.91ZM94.1375 139.758L91.2609 138.906L91.2586 138.914L91.2565 138.921L94.1375 139.758ZM87.9266 95.8711L85.5487 97.7002L85.555 97.7084L85.5613 97.7165L87.9266 95.8711ZM77.6727 87.4922L76.3208 90.1703L76.331 90.1755L76.3413 90.1806L77.6727 87.4922ZM49.1961 87.4922L50.5377 90.1755L50.5479 90.1703L49.1961 87.4922ZM38.9422 95.8711L36.5769 94.0257L36.5706 94.0338L36.5643 94.042L38.9422 95.8711ZM32.7312 108.469L29.8502 107.632L29.8471 107.643L29.8441 107.654L32.7312 108.469ZM32.7898 139.758L29.907 140.588L29.9088 140.594L32.7898 139.758ZM39.0008 152.414L36.6133 154.231L36.6195 154.239L36.6258 154.247L39.0008 152.414ZM63.493 166.699C59.4536 166.699 55.5807 166.186 51.8652 165.166L50.2769 170.952C54.5302 172.119 58.9385 172.699 63.493 172.699V166.699ZM51.8725 165.168C48.1539 164.137 44.6679 162.704 41.4077 160.873L38.4689 166.104C42.1618 168.178 46.0976 169.793 50.2696 170.95L51.8725 165.168ZM41.4425 160.893C38.2186 159.024 35.2714 156.791 32.5963 154.189L28.413 158.49C31.4411 161.436 34.7829 163.968 38.434 166.084L41.4425 160.893ZM32.6111 154.204C29.9747 151.604 27.7079 148.733 25.8063 145.588L20.6719 148.693C22.8327 152.267 25.4096 155.529 28.3983 158.476L32.6111 154.204ZM25.8141 145.601C23.9156 142.425 22.4346 139.027 21.372 135.399L15.6139 137.086C16.8169 141.192 18.5 145.059 20.664 148.68L25.8141 145.601ZM21.3819 135.433C20.3647 131.801 19.8523 128.011 19.8523 124.055H13.8523C13.8523 128.536 14.4337 132.871 15.6041 137.051L21.3819 135.433ZM19.8523 124.055C19.8523 120.182 20.3634 116.453 21.3797 112.859L15.6062 111.227C14.4351 115.367 13.8523 119.646 13.8523 124.055H19.8523ZM21.372 112.886C22.4339 109.261 23.9127 105.887 25.8063 102.755L20.6719 99.6509C18.503 103.238 16.8177 107.09 15.6139 111.2L21.372 112.886ZM25.8063 102.755C27.7079 99.6103 29.9747 96.7398 32.6111 94.14L28.3983 89.8678C25.4096 92.8149 22.8327 96.0772 20.6719 99.6509L25.8063 102.755ZM32.5963 94.1545C35.2661 91.5578 38.206 89.3487 41.4203 87.5224L38.4562 82.3057C34.7955 84.3856 31.4464 86.9031 28.413 89.8533L32.5963 94.1545ZM41.4077 87.5296C44.6679 85.698 48.1539 84.2656 51.8725 83.2347L50.2696 77.4528C46.0976 78.6094 42.1618 80.2239 38.4689 82.2986L41.4077 87.5296ZM51.8652 83.2367C55.5807 82.2168 59.4536 81.7031 63.493 81.7031V75.7031C58.9385 75.7031 54.5302 76.2832 50.2769 77.4508L51.8652 83.2367ZM63.493 81.7031C67.4908 81.7031 71.3222 82.2162 74.9962 83.2347L76.5991 77.4528C72.3825 76.2838 68.0108 75.7031 63.493 75.7031V81.7031ZM75.0229 83.242C78.7199 84.2303 82.1652 85.6537 85.3676 87.5097L88.3761 82.3185C84.7035 80.19 80.766 78.5666 76.5724 77.4455L75.0229 83.242ZM85.3898 87.5224C88.5997 89.3462 91.5147 91.5508 94.1404 94.14L98.3533 89.8678C95.354 86.9102 92.0191 84.3882 88.3539 82.3057L85.3898 87.5224ZM94.1552 94.1545C96.8208 96.747 99.0773 99.6056 100.932 102.733L106.093 99.6729C103.963 96.0819 101.376 92.8077 98.3385 89.8533L94.1552 94.1545ZM100.945 102.755C102.834 105.879 104.291 109.245 105.313 112.859L111.087 111.227C109.922 107.107 108.253 103.246 106.08 99.6509L100.945 102.755ZM105.321 112.886C106.371 116.472 106.899 120.192 106.899 124.055H112.899C112.899 119.637 112.294 115.348 111.079 111.2L105.321 112.886ZM106.899 124.055C106.899 128.001 106.37 131.782 105.319 135.407L111.081 137.078C112.296 132.89 112.899 128.546 112.899 124.055H106.899ZM105.313 135.426C104.29 139.043 102.831 142.433 100.937 145.601L106.088 148.68C108.256 145.052 109.922 141.176 111.087 137.059L105.313 135.426ZM100.932 145.61C99.0773 148.738 96.8208 151.597 94.1552 154.189L98.3385 158.49C101.376 155.536 103.963 152.262 106.093 148.671L100.932 145.61ZM94.1404 154.204C91.5095 156.798 88.5871 159.027 85.3676 160.893L88.3761 166.084C92.0317 163.965 95.3592 161.428 98.3533 158.476L94.1404 154.204ZM85.3898 160.88C82.1742 162.707 78.7124 164.137 74.9962 165.168L76.5991 170.95C80.7736 169.792 84.6945 168.176 88.3539 166.097L85.3898 160.88ZM74.9962 165.168C71.3222 166.186 67.4908 166.699 63.493 166.699V172.699C68.0108 172.699 72.3825 172.119 76.5991 170.95L74.9962 165.168ZM63.493 167.016C69.2008 167.016 74.3687 165.901 78.9176 163.583L76.1933 158.237C72.6172 160.06 68.4102 161.016 63.493 161.016V167.016ZM78.9073 163.588C83.4037 161.319 87.1924 158.2 90.243 154.247L85.493 150.581C82.9966 153.816 79.9103 156.361 76.2036 158.232L78.9073 163.588ZM90.243 154.247C93.2702 150.324 95.5191 145.759 97.0185 140.594L91.2565 138.921C89.9434 143.444 88.0126 147.316 85.493 150.581L90.243 154.247ZM97.0141 140.609C98.5488 135.425 99.3055 129.901 99.3055 124.055H93.3055C93.3055 129.38 92.6169 134.325 91.2609 138.906L97.0141 140.609ZM99.3055 124.055C99.3055 118.253 98.5697 112.773 97.0771 107.632L91.3151 109.305C92.635 113.852 93.3055 118.763 93.3055 124.055H99.3055ZM97.0771 107.632C95.5772 102.466 93.326 97.9145 90.2918 94.0257L85.5613 97.7165C88.074 100.937 90.0025 104.784 91.3151 109.305L97.0771 107.632ZM90.3044 94.042C87.2854 90.1172 83.5066 87.0337 79.004 84.8038L76.3413 90.1806C80.0418 92.0132 83.099 94.5156 85.5487 97.7002L90.3044 94.042ZM79.0245 84.814C74.4397 82.4998 69.2368 81.3867 63.493 81.3867V87.3867C68.4523 87.3867 72.7024 88.3439 76.3208 90.1703L79.0245 84.814ZM63.493 81.3867C57.6786 81.3867 52.4348 82.4969 47.8443 84.814L50.5479 90.1703C54.1605 88.3469 58.4479 87.3867 63.493 87.3867V81.3867ZM47.8544 84.8089C43.3957 87.0383 39.6271 90.1163 36.5769 94.0257L41.3074 97.7165C43.8042 94.5165 46.8715 92.0086 50.5377 90.1755L47.8544 84.8089ZM36.5643 94.042C33.5751 97.928 31.3479 102.474 29.8502 107.632L35.6123 109.305C36.9271 104.776 38.8405 100.924 41.3201 97.7002L36.5643 94.042ZM29.8441 107.654C28.3948 112.788 27.6805 118.26 27.6805 124.055H33.6805C33.6805 118.756 34.3333 113.837 35.6184 109.284L29.8441 107.654ZM27.6805 124.055C27.6805 129.894 28.4157 135.41 29.907 140.588L35.6727 138.928C34.3514 134.34 33.6805 129.387 33.6805 124.055H27.6805ZM29.9088 140.594C31.4059 145.751 33.6309 150.311 36.6133 154.231L41.3883 150.597C38.9019 147.33 36.9863 143.452 35.6709 138.921L29.9088 140.594ZM36.6258 154.247C39.6763 158.2 43.465 161.319 47.9614 163.588L50.6651 158.232C46.9584 156.361 43.8721 153.816 41.3758 150.581L36.6258 154.247ZM47.9614 163.588C52.5462 165.903 57.7492 167.016 63.493 167.016V161.016C58.5337 161.016 54.2835 160.058 50.6651 158.232L47.9614 163.588ZM164.956 93.6445L163.3 96.1461L163.313 96.1543L163.325 96.1623L164.956 93.6445ZM156.167 89.3672L155.197 92.206L155.213 92.2115L155.229 92.2168L156.167 89.3672ZM146.616 87.1992L146.258 90.1777L146.262 90.1782L146.616 87.1992ZM129.8 86.6133V83.6133H126.8V86.6133H129.8ZM129.8 162.258H126.8V165.258H129.8V162.258ZM146.616 161.672L146.262 158.693L146.258 158.693L146.616 161.672ZM156.167 159.562L157.105 162.412L157.121 162.407L157.137 162.401L156.167 159.562ZM164.956 155.285L166.587 157.803L164.956 155.285ZM172.222 148.43L174.626 150.224L174.632 150.216L174.638 150.208L172.222 148.43ZM189.273 141.457L186.499 140.315L186.494 140.325L189.273 141.457ZM163.784 164.602L162.773 161.777L162.768 161.779L163.784 164.602ZM116.968 168H113.968V171H116.968V168ZM116.968 80.8711V77.8711H113.968V80.8711H116.968ZM163.784 84.2695L162.768 87.092L162.773 87.094L163.784 84.2695ZM179.663 93.5859L177.624 95.7865L177.63 95.7915L177.635 95.7966L179.663 93.5859ZM189.273 107.414L186.491 108.539L186.496 108.551L186.502 108.564L189.273 107.414ZM181.96 124.582C181.96 119.052 181.331 114.114 180.012 109.815L174.276 111.576C175.378 115.167 175.96 119.487 175.96 124.582H181.96ZM180.012 109.815C178.719 105.604 176.941 101.909 174.638 98.7801L169.806 102.337C171.643 104.833 173.146 107.896 174.276 111.576L180.012 109.815ZM174.638 98.7801C172.365 95.6926 169.682 93.1317 166.587 91.1268L163.325 96.1623C165.777 97.7511 167.938 99.7996 169.806 102.337L174.638 98.7801ZM166.612 91.143C163.621 89.1631 160.451 87.6187 157.105 86.5176L155.229 92.2168C158.055 93.1469 160.744 94.4541 163.3 96.1461L166.612 91.143ZM157.137 86.5284C153.849 85.4046 150.459 84.6355 146.971 84.2203L146.262 90.1782C149.336 90.5442 152.313 91.2204 155.197 92.206L157.137 86.5284ZM146.975 84.2208C143.621 83.8166 140.337 83.6133 137.124 83.6133V89.6133C140.084 89.6133 143.128 89.8006 146.258 90.1777L146.975 84.2208ZM137.124 83.6133H129.8V89.6133H137.124V83.6133ZM126.8 86.6133V162.258H132.8V86.6133H126.8ZM129.8 165.258H137.124V159.258H129.8V165.258ZM137.124 165.258C140.337 165.258 143.621 165.054 146.975 164.65L146.258 158.693C143.128 159.071 140.084 159.258 137.124 159.258V165.258ZM146.971 164.651C150.447 164.237 153.826 163.491 157.105 162.412L155.229 156.713C152.336 157.665 149.348 158.325 146.262 158.693L146.971 164.651ZM157.137 162.401C160.459 161.266 163.61 159.732 166.587 157.803L163.325 152.767C160.755 154.432 158.047 155.75 155.197 156.724L157.137 162.401ZM166.587 157.803C169.673 155.804 172.353 153.269 174.626 150.224L169.818 146.635C167.95 149.137 165.786 151.173 163.325 152.767L166.587 157.803ZM174.638 150.208C176.937 147.084 178.716 143.412 180.009 139.24L174.278 137.463C173.15 141.103 171.647 144.15 169.806 146.651L174.638 150.208ZM180.009 139.24C181.331 134.977 181.96 130.074 181.96 124.582H175.96C175.96 129.637 175.379 133.914 174.278 137.463L180.009 139.24ZM189.554 124.348C189.554 130.074 188.528 135.386 186.499 140.315L192.047 142.599C194.392 136.903 195.554 130.809 195.554 124.348H189.554ZM186.494 140.325C184.515 145.185 181.567 149.431 177.624 153.085L181.702 157.486C186.275 153.248 189.734 148.276 192.051 142.589L186.494 140.325ZM177.624 153.085C173.707 156.715 168.78 159.627 162.773 161.777L164.796 167.426C171.445 165.045 177.104 161.746 181.702 157.486L177.624 153.085ZM162.768 161.779C156.872 163.903 149.943 165 141.929 165V171C150.477 171 158.119 169.831 164.801 167.424L162.768 161.779ZM141.929 165H116.968V171H141.929V165ZM119.968 168V80.8711H113.968V168H119.968ZM116.968 83.8711H141.929V77.8711H116.968V83.8711ZM141.929 83.8711C149.943 83.8711 156.872 84.9681 162.768 87.092L164.801 81.4471C158.119 79.0397 150.477 77.8711 141.929 77.8711V83.8711ZM162.773 87.094C168.78 89.2445 173.707 92.1564 177.624 95.7865L181.702 91.3854C177.104 87.1249 171.445 83.8258 164.796 81.4451L162.773 87.094ZM177.635 95.7966C181.567 99.4039 184.512 103.643 186.491 108.539L192.054 106.289C189.737 100.56 186.275 95.5805 181.691 91.3753L177.635 95.7966ZM186.502 108.564C188.53 113.453 189.554 118.705 189.554 124.348H195.554C195.554 117.959 194.39 111.922 192.044 106.265L186.502 108.564ZM206.628 116.965L206.379 113.975L206.372 113.976L206.628 116.965ZM199.714 118.137L200.414 121.054L200.469 121.041L200.523 121.026L199.714 118.137ZM196.784 118.898L193.97 119.938L194.929 122.533L197.593 121.787L196.784 118.898ZM195.378 115.09L194.339 112.275L191.525 113.314L192.564 116.129L195.378 115.09ZM205.632 112.512L206.056 115.482L206.07 115.48L206.083 115.478L205.632 112.512ZM225.905 112.336L225.419 115.296L225.426 115.297L225.905 112.336ZM232.116 114.504L230.422 116.98L230.445 116.995L230.468 117.01L232.116 114.504ZM235.163 118.488L232.311 119.417L232.324 119.457L232.338 119.497L235.163 118.488ZM236.042 168V171H239.042V168H236.042ZM203.405 166.359L202.549 169.235L202.557 169.237L203.405 166.359ZM194.382 161.965L192.508 164.307L192.52 164.317L192.532 164.327L194.382 161.965ZM189.226 155.578L186.492 156.813L186.495 156.821L186.499 156.83L189.226 155.578ZM189.109 139.289L186.345 138.123L186.337 138.141L186.329 138.16L189.109 139.289ZM193.62 133.02L195.576 135.294L195.589 135.283L195.602 135.272L193.62 133.02ZM200.769 129.152L201.645 132.021L201.664 132.016L201.682 132.01L200.769 129.152ZM216.999 128.801L216.218 131.697L216.229 131.7L216.999 128.801ZM224.148 131.789L222.631 134.377L227.148 137.025V131.789H224.148ZM223.855 121.77L220.918 122.381L220.92 122.394L220.923 122.407L223.855 121.77ZM222.331 119.309L220.319 121.533L220.348 121.56L220.379 121.586L222.331 119.309ZM218.523 117.492L217.716 120.382L217.725 120.384L217.733 120.386L218.523 117.492ZM224.148 163.195V166.195H227.148V163.195H224.148ZM224.148 136.066H227.148V134.374L225.699 133.499L224.148 136.066ZM218.288 133.547L217.508 136.444L218.288 133.547ZM206.335 133.781L205.078 131.057L205.064 131.064L205.051 131.07L206.335 133.781ZM200.241 141.398L197.371 140.525L197.363 140.554L197.354 140.583L200.241 141.398ZM199.538 149.836L196.541 149.951L196.543 150.009L196.547 150.066L199.538 149.836ZM200.124 153.117L197.226 153.89L197.237 153.935L197.251 153.979L200.124 153.117ZM201.648 156.691L199.017 158.134L199.045 158.185L199.075 158.235L201.648 156.691ZM209.323 162.316L208.392 165.168L208.419 165.177L208.445 165.185L209.323 162.316ZM211.55 113.789C209.617 113.789 207.89 113.849 206.379 113.975L206.877 119.954C208.179 119.846 209.733 119.789 211.55 119.789V113.789ZM206.372 113.976C204.935 114.099 203.599 114.265 202.368 114.477L203.388 120.39C204.422 120.212 205.586 120.065 206.884 119.954L206.372 113.976ZM202.368 114.477C201.148 114.688 199.992 114.943 198.905 115.248L200.523 121.026C201.389 120.783 202.343 120.57 203.388 120.39L202.368 114.477ZM199.014 115.22C198.001 115.463 196.988 115.726 195.975 116.01L197.593 121.787C198.534 121.524 199.474 121.279 200.414 121.054L199.014 115.22ZM199.599 117.859L198.192 114.051L192.564 116.129L193.97 119.938L199.599 117.859ZM196.417 117.904C199.494 116.769 202.706 115.96 206.056 115.482L205.208 109.542C201.449 110.079 197.825 110.989 194.339 112.275L196.417 117.904ZM206.083 115.478C209.547 114.95 212.794 114.691 215.827 114.691V108.691C212.455 108.691 208.904 108.979 205.181 109.546L206.083 115.478ZM215.827 114.691C219.844 114.691 223.025 114.903 225.419 115.296L226.392 109.376C223.552 108.909 220.014 108.691 215.827 108.691V114.691ZM225.426 115.297C227.844 115.689 229.437 116.306 230.422 116.98L233.81 112.028C231.827 110.671 229.279 109.843 226.385 109.374L225.426 115.297ZM230.468 117.01C231.387 117.615 231.976 118.389 232.311 119.417L238.016 117.56C237.257 115.229 235.815 113.346 233.765 111.998L230.468 117.01ZM232.338 119.497C232.77 120.706 233.042 122.406 233.042 124.699H239.042C239.042 121.992 238.729 119.551 237.989 117.479L232.338 119.497ZM233.042 124.699V168H239.042V124.699H233.042ZM236.042 165H216.823V171H236.042V165ZM216.823 165C211.782 165 207.612 164.471 204.254 163.482L202.557 169.237C206.621 170.435 211.396 171 216.823 171V165ZM204.262 163.484C200.852 162.468 198.208 161.151 196.232 159.603L192.532 164.327C195.243 166.45 198.615 168.063 202.549 169.235L204.262 163.484ZM196.256 159.622C194.225 157.997 192.824 156.226 191.952 154.327L186.499 156.83C187.815 159.695 189.852 162.183 192.508 164.307L196.256 159.622ZM191.96 154.343C191.041 152.309 190.585 150.191 190.585 147.961H184.585C184.585 151.043 185.223 154.003 186.492 156.813L191.96 154.343ZM190.585 147.961C190.585 144.985 191.046 142.491 191.888 140.418L186.329 138.16C185.14 141.087 184.585 144.374 184.585 147.961H190.585ZM191.873 140.455C192.757 138.359 193.993 136.656 195.576 135.294L191.664 130.745C189.341 132.743 187.569 135.219 186.345 138.123L191.873 140.455ZM195.602 135.272C197.196 133.869 199.188 132.772 201.645 132.021L199.892 126.283C196.725 127.251 193.951 128.732 191.638 130.767L195.602 135.272ZM201.682 132.01C204.143 131.224 207.029 130.805 210.378 130.805V124.805C206.539 124.805 203.019 125.284 199.856 126.295L201.682 132.01ZM210.378 130.805C212.001 130.805 213.939 131.082 216.218 131.697L217.781 125.904C215.138 125.191 212.661 124.805 210.378 124.805V130.805ZM216.229 131.7C218.463 132.294 220.595 133.184 222.631 134.377L225.665 129.201C223.169 127.738 220.535 126.636 217.769 125.901L216.229 131.7ZM227.148 131.789V124.465H221.148V131.789H227.148ZM227.148 124.465C227.148 123.347 227.026 122.235 226.786 121.132L220.923 122.407C221.074 123.101 221.148 123.786 221.148 124.465H227.148ZM226.792 121.158C226.444 119.489 225.539 118.107 224.284 117.031L220.379 121.586C220.764 121.916 220.875 122.175 220.918 122.381L226.792 121.158ZM224.344 117.084C223.024 115.89 221.238 115.123 219.312 114.598L217.733 120.386C219.245 120.799 219.998 121.243 220.319 121.533L224.344 117.084ZM219.329 114.603C217.266 114.027 214.629 113.789 211.55 113.789V119.789C214.408 119.789 216.419 120.02 217.716 120.382L219.329 114.603ZM227.148 163.195V136.066H221.148V163.195H227.148ZM225.699 133.499C223.594 132.227 221.382 131.273 219.068 130.65L217.508 136.444C219.257 136.915 220.952 137.641 222.596 138.634L225.699 133.499ZM219.068 130.65C216.744 130.024 214.231 129.727 211.55 129.727V135.727C213.791 135.727 215.77 135.976 217.508 136.444L219.068 130.65ZM211.55 129.727C209.234 129.727 207.055 130.145 205.078 131.057L207.592 136.505C208.662 136.011 209.96 135.727 211.55 135.727V129.727ZM205.051 131.07C203.148 131.971 201.531 133.26 200.229 134.913L204.942 138.626C205.67 137.701 206.553 136.997 207.619 136.492L205.051 131.07ZM200.229 134.913C198.951 136.534 198.011 138.422 197.371 140.525L203.111 142.272C203.565 140.781 204.188 139.583 204.942 138.626L200.229 134.913ZM197.354 140.583C196.76 142.686 196.48 144.958 196.48 147.375H202.48C202.48 145.417 202.707 143.705 203.128 142.214L197.354 140.583ZM196.48 147.375C196.48 148.055 196.501 148.918 196.541 149.951L202.536 149.721C202.498 148.723 202.48 147.945 202.48 147.375H196.48ZM196.547 150.066C196.642 151.296 196.874 152.573 197.226 153.89L203.023 152.344C202.749 151.318 202.591 150.407 202.529 149.606L196.547 150.066ZM197.251 153.979C197.67 155.376 198.265 156.762 199.017 158.134L204.278 155.249C203.702 154.199 203.282 153.202 202.998 152.255L197.251 153.979ZM199.075 158.235C199.996 159.769 201.236 161.111 202.73 162.278L206.424 157.55C205.419 156.764 204.706 155.958 204.22 155.148L199.075 158.235ZM202.73 162.278C204.318 163.518 206.232 164.463 208.392 165.168L210.255 159.465C208.587 158.92 207.337 158.263 206.424 157.55L202.73 162.278ZM208.445 165.185C210.73 165.884 213.389 166.195 216.355 166.195V160.195C213.773 160.195 211.745 159.92 210.202 159.448L208.445 165.185ZM216.355 166.195H224.148V160.195H216.355V166.195Z" fill="black" mask="url(#path-1-outside-1_890_178)"/>
</svg>
